<?xml version="1.0" encoding="utf-8"?>
<!-- Svg Vector Icons : http://www.onlinewebfonts.com/icon -->
<!DOCTYPE svg PUBLIC "-//W3C//DTD SVG 1.1//EN" "http://www.w3.org/Graphics/SVG/1.1/DTD/svg11.dtd">
<svg version="1.1" xmlns="http://www.w3.org/2000/svg" xmlns:xlink="http://www.w3.org/1999/xlink" x="0px" y="0px" viewBox="0 0 1000 1000" enable-background="new 0 0 1000 1000" xml:space="preserve">
<metadata> Svg Vector Icons : http://www.onlinewebfonts.com/icon </metadata>
<g><path d="M990,500.1C990,770.6,770.6,990,500,990c-137.6,0-261.1-57.4-350-148.8V920c0,23.2-18.8,42-42,42c-23.2,0-42-18.8-42-42V724c0-23.2,18.8-42,42-42h196c23.2,0,42,18.8,42,42c0,23.2-18.8,42-42,42H194.9c74.3,85.4,183,140,305.1,140c224.2,0,406-181.7,406-406c0-4.7-0.6-9.3-0.7-14h3.5c5.8-16.2,20.9-28,39.2-28c18.2,0,33.3,11.8,39.2,28h2.1C989.4,490.7,990,495.3,990,500.1L990,500.1C990,500,990,500,990,500.1z M892,318H696c-23.2,0-42-18.8-42-42c0-23.2,18.8-42,42-42h109.3C730.9,148.6,622.1,94,500,94C280.5,94,102.1,268.3,94.7,486h-3.5c-5.8,16.2-20.9,28-39.2,28s-33.3-11.8-39.2-28h-2.1c0.1-2.6,0.5-5,0.6-7.6c-0.3-2.2-1.3-4.1-1.3-6.4c0-5.2,1.2-9.9,2.9-14.5C34.6,207,243.8,10,500,10c137.3,0,261.2,56.8,350,147.9V80c0-23.2,18.8-42,42-42c23.2,0,42,18.8,42,42v196C934,299.2,915.2,318,892,318z"/></g>
</svg>